HIERARCHY
ROOT Hips
{
	OFFSET 0.000000 0.000000 0.000000
	CHANNELS 6 Xposition Yposition Zposition Zrotation Yrotation Xrotation 
	JOINT LeftUpLeg_virtual
	{
		OFFSET 0.000000 0.000000 0.000000
		CHANNELS 3 Zrotation Yrotation Xrotation
		JOINT LeftUpLeg
		{
			OFFSET 8.479694 -4.795517 -0.379053
			CHANNELS 3 Zrotation Yrotation Xrotation
			JOINT LeftLeg
			{
				OFFSET 0.485052 -32.551468 0.112863
				CHANNELS 3 Zrotation Yrotation Xrotation
				JOINT LeftFoot
				{
					OFFSET 0.438033 -32.635670 -3.012641
					CHANNELS 3 Zrotation Yrotation Xrotation
					JOINT LeftToeBase
					{
						OFFSET 0.970169 -13.225353 11.864223
						CHANNELS 3 Zrotation Yrotation Xrotation
						End Site
						{
							OFFSET 0.000000 0.000000 0.000000
						}
					}
				}
			}
		}
	}
	JOINT RightUpLeg_virtual
	{
		OFFSET 0.000000 0.000000 0.000000
		CHANNELS 3 Zrotation Yrotation Xrotation
		JOINT RightUpLeg
		{
			OFFSET -8.479694 -4.795517 -0.379053
			CHANNELS 3 Zrotation Yrotation Xrotation
			JOINT RightLeg
			{
				OFFSET -0.484100 -32.551483 0.112903
				CHANNELS 3 Zrotation Yrotation Xrotation
				JOINT RightFoot
				{
					OFFSET -0.438985 -32.635651 -3.012681
					CHANNELS 3 Zrotation Yrotation Xrotation
					JOINT RightToeBase
					{
						OFFSET -0.970169 -13.225354 11.864223
						CHANNELS 3 Zrotation Yrotation Xrotation
						End Site
						{
							OFFSET 0.000000 0.000000 0.000000
						}
					}
				}
			}
		}
	}
	JOINT Spine_virtual
	{
		OFFSET 0.000000 0.000000 0.000000
		CHANNELS 3 Zrotation Yrotation Xrotation
		JOINT Spine
		{
			OFFSET 0.000000 7.722015 1.166203
			CHANNELS 3 Zrotation Yrotation Xrotation
			JOINT Spine1
			{
				OFFSET 0.000000 12.024086 0.248766
				CHANNELS 3 Zrotation Yrotation Xrotation
				JOINT Spine2
				{
					OFFSET -0.000000 11.503036 -0.491240
					CHANNELS 3 Zrotation Yrotation Xrotation
					JOINT Neck_virtual
					{
						OFFSET 0.000000 0.000000 0.000000
						CHANNELS 3 Zrotation Yrotation Xrotation
						JOINT Neck
						{
							OFFSET 0.000000 18.430687 -3.123054
							CHANNELS 3 Zrotation Yrotation Xrotation
							JOINT Head
							{
								OFFSET -0.000000 9.051071 1.034021
								CHANNELS 3 Zrotation Yrotation Xrotation
								End Site
								{
									OFFSET 0.000000 0.000000 0.000000
								}
							}
						}
					}
					JOINT LeftShoulder_virtual
					{
						OFFSET 0.000000 0.000000 0.000000
						CHANNELS 3 Zrotation Yrotation Xrotation
						JOINT LeftShoulder
						{
							OFFSET 6.197824 13.665230 -4.064723
							CHANNELS 3 Zrotation Yrotation Xrotation
							JOINT LeftArm
							{
								OFFSET 7.778132 -0.187073 -1.709282
								CHANNELS 3 Zrotation Yrotation Xrotation
								JOINT LeftForeArm
								{
									OFFSET 21.954697 0.000000 -2.041093
									CHANNELS 3 Zrotation Yrotation Xrotation
									JOINT LeftHand
									{
										OFFSET 22.992908 0.000000 -0.870901
										CHANNELS 3 Zrotation Yrotation Xrotation
										End Site
										{
											OFFSET 0.000000 0.000000 0.000000
										}
									}
								}
							}
						}
					}
					JOINT RightShoulder_virtual
					{
						OFFSET 0.000000 0.000000 0.000000
						CHANNELS 3 Zrotation Yrotation Xrotation
						JOINT RightShoulder
						{
							OFFSET -6.197824 13.665230 -4.064723
							CHANNELS 3 Zrotation Yrotation Xrotation
							JOINT RightArm
							{
								OFFSET -7.778132 -0.187073 -1.709282
								CHANNELS 3 Zrotation Yrotation Xrotation
								JOINT RightForeArm
								{
									OFFSET -21.954697 0.000000 -2.041093
									CHANNELS 3 Zrotation Yrotation Xrotation
									JOINT RightHand
									{
										OFFSET -22.992908 0.000000 -0.870901
										CHANNELS 3 Zrotation Yrotation Xrotation
										End Site
										{
											OFFSET 0.000000 0.000000 0.000000
										}
									}
								}
							}
						}
					}
				}
			}
		}
	}
}
MOTION
Frames: 10
Frame Time: 0.033333
-2.912405 81.904800 58.953007 179.962412 0.504838 179.912961 -5.817903 0.726882 10.439719 4.635529 -3.495929 -22.871384 8.652524 8.014253 29.051373 -2.768988 -4.880953 -8.728790 0.000000 0.000000 0.000000 -1.413276 -0.451439 9.504901 -2.687974 0.869428 -16.158942 -1.294568 2.398029 25.387835 5.341322 7.183160 -7.754505 0.000000 0.000000 0.000000 1.733035 2.485803 -2.225837 -4.406511 2.427711 -0.452276 -0.396008 -2.673776 4.040559 0.025949 0.013874 0.035254 -1.021422 -1.324344 5.063764 1.744979 -4.479126 -17.563196 0.000000 0.000000 0.000000 0.609202 -0.434787 2.416281 12.686266 5.206983 -2.817417 0.052713 2.071387 -47.525040 -1.087217 -26.937604 -4.604576 0.000000 0.000000 0.000000 -3.558096 0.816602 1.912267 6.831147 -17.405381 -5.374061 10.555190 -8.554685 -44.786964 -0.510279 32.141521 -5.865575 0.000000 0.000000 0.000000 
-2.915154 81.909798 58.957390 179.952685 0.421016 179.902593 -5.800595 0.731395 10.435786 4.633717 -3.571762 -22.905707 8.470609 7.886756 29.053108 -3.043766 -5.214813 -8.713314 0.000000 0.000000 0.000000 -1.407333 -0.646398 9.492390 -2.622782 0.478262 -16.173816 -1.242010 2.163091 25.451059 5.353510 7.184002 -7.551765 0.000000 0.000000 0.000000 1.730128 2.473177 -2.191209 -4.408084 2.421944 -0.450721 -0.401674 -2.681429 4.003425 0.016796 0.000358 -0.046878 -1.011323 -1.311930 5.153198 1.756019 -4.501559 -17.560413 0.000000 0.000000 0.000000 0.593598 -0.407020 2.539003 12.649885 5.225793 -2.770795 0.039457 1.935508 -47.475941 -0.962380 -26.877483 -4.710683 0.000000 0.000000 0.000000 -3.545188 0.827580 1.997974 6.846325 -17.383822 -5.343710 10.523906 -8.541337 -44.812738 -0.513882 32.139493 -5.883706 0.000000 0.000000 0.000000 
-2.921313 81.905365 58.964153 179.969051 0.539676 179.900899 -5.773512 0.807027 10.438349 4.632395 -3.566544 -22.945828 8.466323 7.874674 29.075241 -3.026082 -5.207182 -8.735157 0.000000 0.000000 0.000000 -1.409852 -0.589260 9.463589 -2.614782 0.482207 -16.208785 -1.246521 2.187931 25.455425 5.356978 7.195568 -7.631299 0.000000 0.000000 0.000000 1.747859 2.519606 -2.191505 -4.396003 2.449664 -0.427584 -0.389548 -2.656297 4.038486 0.032042 0.032375 0.021643 -1.024331 -1.327644 5.104132 1.756150 -4.486634 -17.558794 0.000000 0.000000 0.000000 0.562652 -0.416890 2.540338 12.642604 5.160920 -2.799756 -0.009855 1.891640 -47.533851 -1.052725 -26.889522 -4.612153 0.000000 0.000000 0.000000 -3.559093 0.773289 1.940471 6.861528 -17.392875 -5.382577 10.510383 -8.425735 -44.772720 -0.509799 32.110126 -5.853635 0.000000 0.000000 0.000000 
-2.928972 81.903732 58.964520 179.965280 0.461504 179.939817 -5.785846 0.784630 10.452903 4.632883 -3.620861 -22.978599 8.481059 7.873429 29.123722 -3.024011 -5.221260 -8.712390 0.000000 0.000000 0.000000 -1.416154 -0.617117 9.479910 -2.622404 0.459341 -16.236183 -1.242930 2.155206 25.450361 5.365430 7.211164 -7.603490 0.000000 0.000000 0.000000 1.746199 2.489674 -2.205791 -4.395043 2.415205 -0.452245 -0.384490 -2.685516 4.046312 0.030894 -0.002684 -0.020115 -1.025004 -1.325228 5.096238 1.768783 -4.502574 -17.537977 0.000000 0.000000 0.000000 0.578290 -0.385147 2.494385 12.639078 5.190910 -2.742067 -0.091146 1.862361 -47.574856 -1.067351 -26.845849 -4.639776 0.000000 0.000000 0.000000 -3.538155 0.803836 1.969904 6.723225 -17.302672 -5.449262 10.547577 -8.401218 -44.702389 -0.446782 32.113705 -5.790292 0.000000 0.000000 0.000000 
-2.934922 81.901466 58.968891 179.948259 0.497225 179.941429 -5.781750 0.744294 10.453210 4.631632 -3.607291 -23.023268 8.487300 7.888763 29.098552 -2.983584 -5.194513 -8.744243 0.000000 0.000000 0.000000 -1.440009 -0.556849 9.501027 -2.637672 0.461924 -16.247258 -1.243809 2.101474 25.459238 5.358663 7.208185 -7.564845 0.000000 0.000000 0.000000 1.760144 2.507657 -2.180611 -4.374806 2.431392 -0.430248 -0.432520 -2.660682 4.028018 -0.046223 0.022856 0.013299 -0.907211 -1.241056 5.097060 1.746239 -4.511448 -17.495333 0.000000 0.000000 0.000000 0.715886 -0.442412 2.482870 12.654840 5.105925 -2.797638 -0.233404 1.897406 -47.451868 -1.042937 -26.900983 -4.601895 0.000000 0.000000 0.000000 -3.421746 0.786928 1.924884 6.794724 -17.271501 -5.364408 10.518776 -8.384721 -44.549677 -0.583423 32.092614 -5.907695 0.000000 0.000000 0.000000 
-2.936756 81.898308 58.975128 179.963586 0.443809 179.898481 -5.776279 0.727803 10.515344 4.619098 -3.590327 -23.000099 8.494051 7.946175 29.144824 -2.974361 -5.205233 -8.749379 0.000000 0.000000 0.000000 -1.433032 -0.526595 9.565639 -2.645040 0.504791 -16.227544 -1.227643 2.066067 25.411015 5.349453 7.201623 -7.552826 0.000000 0.000000 0.000000 1.769898 2.480460 -2.134493 -4.375582 2.410698 -0.415281 -0.366374 -2.681960 4.019428 -0.004708 0.006016 -0.022853 -0.960799 -1.310203 5.107205 1.787031 -4.478262 -17.468115 0.000000 0.000000 0.000000 0.622988 -0.411557 2.514718 12.659288 5.133263 -2.697008 -0.321567 1.853545 -47.380964 -0.937932 -26.908821 -4.699366 0.000000 0.000000 0.000000 -3.507386 0.793905 1.969754 6.798854 -17.196181 -5.272229 10.498385 -8.339140 -44.685222 -0.517595 32.065604 -5.835898 0.000000 0.000000 0.000000 
-2.936868 81.898132 58.986111 179.961592 0.533517 179.919668 -5.771708 0.757534 10.511376 4.623412 -3.586750 -23.047123 8.474088 7.954546 29.129872 -2.954037 -5.204421 -8.749757 0.000000 0.000000 0.000000 -1.426136 -0.477039 9.545656 -2.639921 0.495130 -16.239188 -1.238676 2.080808 25.404405 5.350705 7.206636 -7.560195 0.000000 0.000000 0.000000 1.775077 2.494910 -2.132934 -4.377634 2.439857 -0.420324 -0.363519 -2.654599 4.025489 0.007360 0.028037 -0.009080 -0.966983 -1.318013 5.085819 1.764832 -4.482345 -17.396278 0.000000 0.000000 0.000000 0.640983 -0.466960 2.474512 12.682584 5.073987 -2.786184 -0.429429 1.918699 -47.313683 -1.004075 -26.951720 -4.517324 0.000000 0.000000 0.000000 -3.524219 0.808832 1.874112 6.878450 -17.120972 -5.201203 10.534088 -8.426794 -44.621831 -0.564812 32.064002 -5.906858 0.000000 0.000000 0.000000 
-2.936950 81.899559 58.999870 179.961278 0.510103 179.969146 -5.781497 0.790654 10.494893 4.659604 -3.665732 -23.110604 8.461988 7.846660 29.156264 -2.979067 -5.251290 -8.666660 0.000000 0.000000 0.000000 -1.385437 -0.521633 9.510739 -2.618496 0.401896 -16.254348 -1.255345 2.103254 25.350715 5.346332 7.206616 -7.626850 0.000000 0.000000 0.000000 1.796805 2.452338 -2.146833 -4.377760 2.416831 -0.440665 -0.348821 -2.669928 4.015312 0.021531 0.036881 -0.017361 -0.952551 -1.295924 5.091063 1.765754 -4.475253 -17.334088 0.000000 0.000000 0.000000 0.654240 -0.442536 2.496096 12.716917 5.058607 -2.918932 -0.511098 1.958200 -47.261870 -1.041679 -26.983455 -4.430537 0.000000 0.000000 0.000000 -3.491004 0.791743 1.940291 6.779903 -17.028760 -5.233928 10.675511 -8.382064 -44.696659 -0.516155 32.105721 -5.906933 0.000000 0.000000 0.000000 
-2.939837 81.894325 59.018246 179.970594 0.505183 179.946593 -5.752233 0.758580 10.495806 4.640167 -3.663499 -23.121773 8.451177 7.906764 29.153040 -2.920844 -5.202808 -8.720724 0.000000 0.000000 0.000000 -1.425866 -0.568323 9.502802 -2.622751 0.475666 -16.250311 -1.261513 2.154335 25.365279 5.354285 7.213211 -7.639990 0.000000 0.000000 0.000000 1.803428 2.453919 -2.125145 -4.392554 2.451281 -0.392749 -0.339604 -2.638888 4.069064 0.026363 0.040204 -0.003021 -0.957051 -1.327505 5.050770 1.751573 -4.507807 -17.248926 0.000000 0.000000 0.000000 0.628570 -0.411860 2.489029 12.726158 4.991135 -2.666658 -0.575712 1.960501 -47.391408 -0.980750 -27.037973 -4.402043 0.000000 0.000000 0.000000 -3.502488 0.810025 1.854612 6.767692 -16.950841 -5.270515 10.738197 -8.441433 -44.689275 -0.451674 32.133223 -5.785535 0.000000 0.000000 0.000000 
-2.949220 81.889130 59.035889 179.868674 0.433981 179.899437 -5.812023 0.734989 10.499287 4.612457 -3.745263 -23.109474 8.453355 7.888594 29.137840 -2.922503 -5.220306 -8.703030 0.000000 0.000000 0.000000 -1.514271 -0.565607 9.528295 -2.646848 0.391202 -16.220021 -1.262250 2.072741 25.378845 5.354243 7.212461 -7.622671 0.000000 0.000000 0.000000 1.760939 2.408275 -2.075693 -4.445934 2.408784 -0.384479 -0.339889 -2.665895 4.047223 0.034996 0.013214 -0.005193 -0.917122 -1.276332 5.030557 1.735588 -4.497487 -17.116828 0.000000 0.000000 0.000000 0.667826 -0.389213 2.439125 12.751920 4.951219 -2.673488 -0.711447 2.068397 -47.220909 -0.924701 -27.063122 -4.342771 0.000000 0.000000 0.000000 -3.445366 0.815388 1.878350 6.762590 -16.865525 -5.370313 10.747294 -8.447782 -44.735523 -0.377654 32.114911 -5.670464 0.000000 0.000000 0.000000 
